<svg xmlns="http://www.w3.org/2000/svg" width="520" height="520" viewBox="0 0 520 520">
  <!-- Definitions -->
  <style>
    .dot { r: 10; }
  </style>
  
  <!-- Outer Circles (same as AnimatedRings) -->
  <circle 
    cx="260" 
    cy="260" 
    r="200" 
    stroke="white" 
    stroke-width="8" 
    fill="none"
  />
  <circle 
    cx="260" 
    cy="260" 
    r="170" 
    stroke="white" 
    stroke-width="16" 
    fill="none"
  />
  
  <!-- DARIAN Text - centered within the circles -->
  <g transform="translate(60, 260)">
    <!-- Adjusted positioning to center the text within the circles -->
    
    <!-- D -->
    <g transform="translate(0,-75)">
      <!-- Top row: 4 dots -->
      <circle class="dot" fill="#ffffff" cx="0" cy="0" />
      <circle class="dot" fill="#98fbb9" cx="20" cy="0" />
      <circle class="dot" fill="#fea9ed" cx="40" cy="0" />
      <circle class="dot" fill="#ffffff" cx="60" cy="0" />
      
      <!-- Left column: 7 dots -->
      <circle class="dot" fill="#ffffff" cx="0" cy="0" />
      <circle class="dot" fill="#f9fe71" cx="8" cy="20" />
      <circle class="dot" fill="#00ffff" cx="8" cy="40" />
      <circle class="dot" fill="#98fbb9" cx="8" cy="60" />
      <circle class="dot" fill="#fea9ed" cx="8" cy="80" />
      <circle class="dot" fill="#ffffff" cx="8" cy="100" />
      <circle class="dot" fill="#f9fe71" cx="0" cy="120" />
      
      <!-- Right column: 6 dots (curved part of D) -->
      <circle class="dot" fill="#fea9ed" cx="70" cy="20" />
      <circle class="dot" fill="#00ffff" cx="70" cy="40" />
      <circle class="dot" fill="#ffffff" cx="70" cy="60" />
      <circle class="dot" fill="#98fbb9" cx="70" cy="80" />
      <circle class="dot" fill="#00ffff" cx="70" cy="100" />
      
      <!-- Bottom row: 4 dots -->
      <circle class="dot" fill="#00ffff" cx="20" cy="120" />
      <circle class="dot" fill="#fea9ed" cx="40" cy="120" />
      <circle class="dot" fill="#ffffff" cx="60" cy="120" />
    </g>

    <!-- A -->
    <g transform="translate(90,-75)">
      <!-- Top point -->
      <circle class="dot" fill="#fea9ed" cx="30" cy="0" />
      
      <!-- Left side -->
      <circle class="dot" fill="#00ffff" cx="20" cy="20" />
      <circle class="dot" fill="#98fbb9" cx="15" cy="40" />
      <circle class="dot" fill="#ffffff" cx="8" cy="60" />
      <circle class="dot" fill="#f9fe71" cx="0" cy="80" />
      <circle class="dot" fill="#00ffff" cx="0" cy="100" />
      <circle class="dot" fill="#fea9ed" cx="0" cy="120" />
      
      <!-- Right side -->
      <circle class="dot" fill="#98fbb9" cx="45" cy="20" />
      <circle class="dot" fill="#fea9ed" cx="50" cy="40" />
      <circle class="dot" fill="#ffffff" cx="55" cy="60" />
      <circle class="dot" fill="#f9fe71" cx="60" cy="80" />
      <circle class="dot" fill="#98fbb9" cx="60" cy="100" />
      <circle class="dot" fill="#ffffff" cx="60" cy="120" />
      
      <!-- Cross bar -->
      <circle class="dot" fill="#f9fe71" cx="20" cy="80" />
      <circle class="dot" fill="#fea9ed" cx="30" cy="80" />
      <circle class="dot" fill="#00ffff" cx="40" cy="80" />
    </g>

    <!-- R -->
    <g transform="translate(170,-75)">
      <!-- Vertical line -->
      <circle class="dot" fill="#f9fe71" cx="0" cy="0" />
      <circle class="dot" fill="#00ffff" cx="0" cy="20" />
      <circle class="dot" fill="#fea9ed" cx="0" cy="40" />
      <circle class="dot" fill="#ffffff" cx="0" cy="60" />
      <circle class="dot" fill="#98fbb9" cx="0" cy="80" />
      <circle class="dot" fill="#f9fe71" cx="0" cy="100" />
      <circle class="dot" fill="#00ffff" cx="0" cy="120" />
      
      <!-- Top horizontal -->
      <circle class="dot" fill="#00ffff" cx="20" cy="0" />
      <circle class="dot" fill="#98fbb9" cx="40" cy="0" />
      <circle class="dot" fill="#fea9ed" cx="60" cy="0" />
      
      <!-- Middle horizontal -->
      <circle class="dot" fill="#fea9ed" cx="20" cy="60" />
      <circle class="dot" fill="#00ffff" cx="40" cy="60" />
      <circle class="dot" fill="#98fbb9" cx="60" cy="60" />
      
      <!-- Right vertical -->
      <circle class="dot" fill="#ffffff" cx="70" cy="20" />
      <circle class="dot" fill="#f9fe71" cx="70" cy="40" />
      
      <!-- Diagonal leg -->
      <circle class="dot" fill="#00ffff" cx="60" cy="80" />
      <circle class="dot" fill="#ffffff" cx="65" cy="100" />
      <circle class="dot" fill="#f9fe71" cx="70" cy="120" />
    </g>

    <!-- I -->
    <g transform="translate(260,-75)">
      <!-- Top horizontal -->
      <circle class="dot" fill="#98fbb9" cx="0" cy="0" />
      <circle class="dot" fill="#fea9ed" cx="20" cy="0" />
      <circle class="dot" fill="#ffffff" cx="40" cy="0" />
      <circle class="dot" fill="#00ffff" cx="60" cy="0" />
      <circle class="dot" fill="#ffffff" cx="80" cy="0" />
      
      <!-- Vertical center -->
      <circle class="dot" fill="#f9fe71" cx="40" cy="20" />
      <circle class="dot" fill="#00ffff" cx="40" cy="40" />
      <circle class="dot" fill="#98fbb9" cx="40" cy="60" />
      <circle class="dot" fill="#fea9ed" cx="40" cy="80" />
      <circle class="dot" fill="#00ffff" cx="40" cy="100" />
      
      <!-- Bottom horizontal -->
      <circle class="dot" fill="#00ffff" cx="0" cy="120" />
      <circle class="dot" fill="#fea9ed" cx="20" cy="120" />
      <circle class="dot" fill="#ffffff" cx="40" cy="120" />
      <circle class="dot" fill="#00ffff" cx="60" cy="120" />
      <circle class="dot" fill="#98fbb9" cx="80" cy="120" />
    </g>

    <!-- A (again) -->
    <g transform="translate(360,-75)">
      <!-- Top point -->
      <circle class="dot" fill="#fea9ed" cx="30" cy="0" />
      
      <!-- Left side -->
      <circle class="dot" fill="#00ffff" cx="20" cy="20" />
      <circle class="dot" fill="#98fbb9" cx="15" cy="40" />
      <circle class="dot" fill="#ffffff" cx="8" cy="60" />
      <circle class="dot" fill="#f9fe71" cx="0" cy="80" />
      <circle class="dot" fill="#00ffff" cx="0" cy="100" />
      <circle class="dot" fill="#fea9ed" cx="0" cy="120" />
      
      <!-- Right side -->
      <circle class="dot" fill="#98fbb9" cx="45" cy="20" />
      <circle class="dot" fill="#fea9ed" cx="50" cy="40" />
      <circle class="dot" fill="#ffffff" cx="55" cy="60" />
      <circle class="dot" fill="#f9fe71" cx="60" cy="80" />
      <circle class="dot" fill="#98fbb9" cx="60" cy="100" />
      <circle class="dot" fill="#ffffff" cx="60" cy="120" />
      
      <!-- Cross bar -->
      <circle class="dot" fill="#f9fe71" cx="20" cy="80" />
      <circle class="dot" fill="#fea9ed" cx="30" cy="80" />
      <circle class="dot" fill="#00ffff" cx="40" cy="80" />
    </g>

    <!-- N -->
    <g transform="translate(440,-75)">
      <!-- Left vertical -->
      <circle class="dot" fill="#ffffff" cx="0" cy="0" />
      <circle class="dot" fill="#f9fe71" cx="0" cy="20" />
      <circle class="dot" fill="#00ffff" cx="0" cy="40" />
      <circle class="dot" fill="#fea9ed" cx="0" cy="60" />
      <circle class="dot" fill="#98fbb9" cx="0" cy="80" />
      <circle class="dot" fill="#f9fe71" cx="0" cy="100" />
      <circle class="dot" fill="#fea9ed" cx="0" cy="120" />
      
      <!-- Diagonal -->
      <circle class="dot" fill="#f9fe71" cx="15" cy="25" />
      <circle class="dot" fill="#00ffff" cx="25" cy="50" />
      <circle class="dot" fill="#f9fe71" cx="35" cy="75" />
      <circle class="dot" fill="#00ffff" cx="45" cy="100" />
      
      <!-- Right vertical -->
      <circle class="dot" fill="#98fbb9" cx="60" cy="0" />
      <circle class="dot" fill="#ffffff" cx="60" cy="20" />
      <circle class="dot" fill="#00ffff" cx="60" cy="40" />
      <circle class="dot" fill="#98fbb9" cx="60" cy="60" />
      <circle class="dot" fill="#fea9ed" cx="60" cy="80" />
      <circle class="dot" fill="#f9fe71" cx="60" cy="100" />
      <circle class="dot" fill="#98fbb9" cx="60" cy="120" />
    </g>
  </g>
</svg>
